<svg width="1095" height="650" viewBox="0 0 1095 650" fill="none" xmlns="http://www.w3.org/2000/svg">
<path d="M0 99V535.56C0 535.56 205.242 594.917 341.875 595C410.448 595.042 461.961 580.163 513.478 565.284C564.968 550.412 616.463 535.539 685 535.56C753.418 535.581 804.816 550.433 856.21 565.284C907.63 580.143 959.046 595 1027.5 595C1048.69 595 1071.53 593.575 1095 591.167V154.607C1071.53 157.015 1048.69 158.44 1027.5 158.44C959.046 158.44 907.63 143.583 856.21 128.724C804.816 113.873 753.418 99.0207 685 99C616.463 98.9793 564.968 113.852 513.478 128.724C461.961 143.603 410.448 158.482 341.875 158.44C205.242 158.357 0 99 0 99Z" fill="#71A463"/>
<path d="M0 99V535.56C0 535.56 179.774 594.917 299.453 595C359.517 595.042 404.637 580.163 449.762 565.284C494.863 550.412 539.967 535.539 600 535.56C659.928 535.581 704.948 550.433 749.965 565.284C795.005 580.143 840.04 595 900 595C959.958 595 1034.98 580.133 1095 565.27V128.71C1034.98 143.573 959.958 158.44 900 158.44C840.04 158.44 795.004 143.583 749.965 128.724C704.948 113.873 659.928 99.0207 600 99C539.967 98.9793 494.863 113.852 449.762 128.724C404.637 143.603 359.517 158.482 299.453 158.44C179.774 158.357 0 99 0 99Z" fill="#71A463" fill-opacity="0.25"/>
<path d="M0 110V546.56C0 546.56 179.774 605.917 299.453 606C359.517 606.042 404.637 591.163 449.762 576.284C494.863 561.412 539.967 546.539 600 546.56C659.928 546.581 704.948 561.433 749.965 576.284C795.005 591.143 840.04 606 900 606C959.958 606 1034.98 591.133 1095 576.27V139.71C1034.98 154.573 959.958 169.44 900 169.44C840.04 169.44 795.004 154.583 749.965 139.724C704.948 124.873 659.928 110.021 600 110C539.967 109.979 494.863 124.852 449.762 139.724C404.637 154.603 359.517 169.482 299.453 169.44C179.774 169.357 0 110 0 110Z" fill="#71A463" fill-opacity="0.25"/>
</svg>
